<svg width="81" height="57" viewBox="0 0 81 57" fill="none" xmlns="http://www.w3.org/2000/svg">
<g clip-path="url(#clip0_162_824)">
<path d="M78.8501 -0.0136719H2.1499C0.963115 -0.0136719 0 0.965476 0 2.17162V54.8282C0 56.0341 0.964176 57.0133 2.1499 57.0133H78.8503C80.0365 57.0133 81.0002 56.0341 81.0002 54.8282V2.17162C81 0.965476 80.0364 -0.0136719 78.8501 -0.0136719ZM28.5358 49.1337H7.74559V45.1251H28.5358V49.1337ZM28.5358 38.0975H7.74559V34.0908H28.5358V38.0975ZM35.703 26.7409H7.74559V22.7339H35.703V26.7409ZM72.5312 49.9646H69.5019C69.6803 46.2207 67.9828 42.2858 67.9828 42.2858C67.4082 40.9885 63.9021 39.8656 63.9021 39.8656C62.0305 39.1968 62.0174 38.5281 62.0174 38.5281C58.3404 45.8935 55.5481 38.5498 55.5481 38.5498C55.2906 39.5412 51.5077 40.7094 51.5077 40.7094C50.4031 41.1422 49.9344 41.7883 49.9344 41.7883C48.3004 44.254 48.1098 49.7396 48.1098 49.7396C48.1098 49.8242 48.1195 49.8911 48.1254 49.9646H46.4553V21.5486H72.5314V49.9646H72.5312ZM75.4892 13.0792C75.4892 14.2853 74.5234 15.2654 73.3377 15.2654H7.74754C6.56093 15.2654 5.59569 14.2853 5.59569 13.0792V9.25355C5.59569 8.04687 6.56075 7.0688 7.74754 7.0688H73.3375C74.5232 7.0688 75.489 8.04687 75.489 9.25355V13.0792H75.4892ZM54.6193 34.6338C54.9027 37.0047 56.9085 39.4587 58.7274 39.4587C60.8175 39.4587 62.8064 36.8771 63.1151 34.6338C63.2341 34.5473 63.4256 34.3426 63.4982 33.8766C63.4982 33.8766 63.9456 32.2522 63.3504 32.424C63.5571 31.7984 64.2412 29.3595 62.9171 27.8441C62.9171 27.8441 62.2964 26.9839 60.7905 26.5258L60.0877 26.2787C59.809 26.0741 59.2499 25.5918 59.2499 25.0563C59.2499 25.0563 58.9 25.2217 58.6943 25.5254C58.776 25.2765 58.9113 25.0429 59.1277 24.8536C59.1277 24.8536 58.8998 24.9746 58.6885 25.2352C58.526 25.329 58.1487 25.5887 58.0247 26.0529L58.0306 26.024C58.0306 26.024 57.9544 25.9183 57.7441 25.8872C57.5376 25.8577 57.1753 25.9988 57.1753 25.9988C57.1753 25.9988 54.9773 26.8707 54.3426 28.8804C54.3426 28.8804 53.9622 29.7893 54.4615 32.4593C53.7566 32.1198 54.237 33.8766 54.237 33.8766C54.3097 34.3444 54.5045 34.5472 54.6193 34.6338ZM58.622 25.3218C58.5147 25.4733 58.4227 25.6626 58.3801 25.8933L58.3008 25.8635C58.3618 25.6685 58.4634 25.483 58.622 25.3218Z" fill="#333333" fill-opacity="0.4"/>
</g>
<defs>
<clipPath id="clip0_162_824">
<rect width="81" height="57" fill="white"/>
</clipPath>
</defs>
</svg>
